<svg width="244" height="56" viewBox="0 0 244 56" fill="none" xmlns="http://www.w3.org/2000/svg">
<path d="M22.75 15.0455L26.9261 21.8722H27.0625L31.2386 15.0455H34.2898L28.8523 23.7727L34.3239 32.5H31.2557L27.0625 25.767H26.9261L22.733 32.5H19.6648L25.2301 23.7727L19.6989 15.0455H22.75ZM64.6661 20.5597C64.5013 20.0426 64.2797 19.5795 64.0013 19.1705C63.7286 18.7557 63.4018 18.4034 63.0212 18.1136C62.6405 17.8182 62.2058 17.5937 61.7172 17.4403C61.2342 17.2869 60.703 17.2102 60.1234 17.2102C59.1405 17.2102 58.2541 17.4631 57.4643 17.9688C56.6746 18.4744 56.0496 19.2159 55.5893 20.1932C55.1348 21.1648 54.9075 22.3551 54.9075 23.7642C54.9075 25.179 55.1376 26.375 55.5979 27.3523C56.0581 28.3295 56.6888 29.071 57.4899 29.5767C58.2911 30.0824 59.203 30.3352 60.2257 30.3352C61.1746 30.3352 62.0013 30.142 62.7058 29.7557C63.4161 29.3693 63.9643 28.8239 64.3507 28.1193C64.7428 27.4091 64.9388 26.5739 64.9388 25.6136L65.6206 25.7415H60.6263V23.5682H67.4871V25.554C67.4871 27.0199 67.1746 28.2926 66.5496 29.3722C65.9303 30.446 65.0723 31.2756 63.9757 31.8608C62.8848 32.446 61.6348 32.7386 60.2257 32.7386C58.6462 32.7386 57.2598 32.375 56.0666 31.6477C54.8791 30.9205 53.953 29.8892 53.2882 28.554C52.6234 27.2131 52.2911 25.6222 52.2911 23.7812C52.2911 22.3892 52.4842 21.1392 52.8706 20.0312C53.257 18.9233 53.7996 17.983 54.4984 17.2102C55.203 16.4318 56.0297 15.8381 56.9786 15.429C57.9331 15.0142 58.9757 14.8068 60.1064 14.8068C61.0496 14.8068 61.9274 14.946 62.7399 15.2244C63.5581 15.5028 64.2854 15.8977 64.9217 16.4091C65.5638 16.9205 66.095 17.5284 66.5155 18.233C66.9359 18.9318 67.22 19.7074 67.3678 20.5597H64.6661ZM76.5655 32.5H73.77L80.0513 15.0455H83.0939L89.3751 32.5H86.5797L81.645 18.2159H81.5087L76.5655 32.5ZM77.0342 25.6648H86.1024V27.8807H77.0342V25.6648ZM96.6957 15.0455H99.8918L105.449 28.6136H105.653L111.21 15.0455H114.406V32.5H111.9V19.8693H111.738L106.591 32.4744H104.511L99.3633 19.8608H99.2014V32.5H96.6957V15.0455ZM123.035 32.5V15.0455H133.978V17.3125H125.668V22.6307H133.407V24.8892H125.668V30.233H134.08V32.5H123.035ZM153.447 32.5V15.0455H159.669C161.021 15.0455 162.143 15.2784 163.035 15.7443C163.933 16.2102 164.604 16.8551 165.047 17.679C165.49 18.4972 165.712 19.4432 165.712 20.517C165.712 21.5852 165.487 22.5256 165.038 23.3381C164.595 24.1449 163.925 24.7727 163.027 25.2216C162.135 25.6705 161.013 25.8949 159.66 25.8949H154.947V23.6278H159.422C160.274 23.6278 160.967 23.5057 161.501 23.2614C162.041 23.017 162.436 22.6619 162.686 22.196C162.936 21.7301 163.061 21.1705 163.061 20.517C163.061 19.858 162.933 19.2869 162.677 18.804C162.427 18.321 162.033 17.9517 161.493 17.696C160.959 17.4347 160.257 17.304 159.388 17.304H156.081V32.5H153.447ZM162.064 24.625L166.376 32.5H163.376L159.149 24.625H162.064ZM188.878 23.7727C188.878 25.6364 188.537 27.2386 187.855 28.5795C187.173 29.9148 186.239 30.9432 185.051 31.6648C183.869 32.3807 182.526 32.7386 181.02 32.7386C179.509 32.7386 178.159 32.3807 176.972 31.6648C175.79 30.9432 174.858 29.9119 174.176 28.571C173.494 27.2301 173.154 25.6307 173.154 23.7727C173.154 21.9091 173.494 20.3097 174.176 18.9744C174.858 17.6335 175.79 16.6051 176.972 15.8892C178.159 15.1676 179.509 14.8068 181.02 14.8068C182.526 14.8068 183.869 15.1676 185.051 15.8892C186.239 16.6051 187.173 17.6335 187.855 18.9744C188.537 20.3097 188.878 21.9091 188.878 23.7727ZM186.27 23.7727C186.27 22.3523 186.04 21.1562 185.58 20.1847C185.125 19.2074 184.5 18.4688 183.705 17.9688C182.915 17.4631 182.02 17.2102 181.02 17.2102C180.014 17.2102 179.117 17.4631 178.327 17.9688C177.537 18.4688 176.912 19.2074 176.452 20.1847C175.997 21.1562 175.77 22.3523 175.77 23.7727C175.77 25.1932 175.997 26.392 176.452 27.3693C176.912 28.3409 177.537 29.0795 178.327 29.5852C179.117 30.0852 180.014 30.3352 181.02 30.3352C182.02 30.3352 182.915 30.0852 183.705 29.5852C184.5 29.0795 185.125 28.3409 185.58 27.3693C186.04 26.392 186.27 25.1932 186.27 23.7727ZM212.123 23.7727C212.123 25.6364 211.782 27.2386 211.101 28.5795C210.419 29.9148 209.484 30.9432 208.297 31.6648C207.115 32.3807 205.771 32.7386 204.265 32.7386C202.754 32.7386 201.405 32.3807 200.217 31.6648C199.035 30.9432 198.103 29.9119 197.422 28.571C196.74 27.2301 196.399 25.6307 196.399 23.7727C196.399 21.9091 196.74 20.3097 197.422 18.9744C198.103 17.6335 199.035 16.6051 200.217 15.8892C201.405 15.1676 202.754 14.8068 204.265 14.8068C205.771 14.8068 207.115 15.1676 208.297 15.8892C209.484 16.6051 210.419 17.6335 211.101 18.9744C211.782 20.3097 212.123 21.9091 212.123 23.7727ZM209.515 23.7727C209.515 22.3523 209.285 21.1562 208.825 20.1847C208.37 19.2074 207.745 18.4688 206.95 17.9688C206.16 17.4631 205.265 17.2102 204.265 17.2102C203.26 17.2102 202.362 17.4631 201.572 17.9688C200.782 18.4688 200.157 19.2074 199.697 20.1847C199.243 21.1562 199.015 22.3523 199.015 23.7727C199.015 25.1932 199.243 26.392 199.697 27.3693C200.157 28.3409 200.782 29.0795 201.572 29.5852C202.362 30.0852 203.26 30.3352 204.265 30.3352C205.265 30.3352 206.16 30.0852 206.95 29.5852C207.745 29.0795 208.37 28.3409 208.825 27.3693C209.285 26.392 209.515 25.1932 209.515 23.7727ZM220.207 15.0455H223.403L228.96 28.6136H229.164L234.721 15.0455H237.917V32.5H235.411V19.8693H235.249L230.102 32.4744H228.022L222.874 19.8608H222.712V32.5H220.207V15.0455Z" fill="#F3A93A"/>
<path d="M12.5 44V0L0 12.5V56H231.5L243.5 44H12.5Z" fill="black"/>
</svg>
