<svg width="244" height="57" viewBox="0 0 244 57" fill="none" xmlns="http://www.w3.org/2000/svg">
<path d="M22.75 15.5455L26.9261 22.3722H27.0625L31.2386 15.5455H34.2898L28.8523 24.2727L34.3239 33H31.2557L27.0625 26.267H26.9261L22.733 33H19.6648L25.2301 24.2727L19.6989 15.5455H22.75ZM64.6661 21.0597C64.5013 20.5426 64.2797 20.0795 64.0013 19.6705C63.7286 19.2557 63.4018 18.9034 63.0212 18.6136C62.6405 18.3182 62.2058 18.0937 61.7172 17.9403C61.2342 17.7869 60.703 17.7102 60.1234 17.7102C59.1405 17.7102 58.2541 17.9631 57.4643 18.4688C56.6746 18.9744 56.0496 19.7159 55.5893 20.6932C55.1348 21.6648 54.9075 22.8551 54.9075 24.2642C54.9075 25.679 55.1376 26.875 55.5979 27.8523C56.0581 28.8295 56.6888 29.571 57.4899 30.0767C58.2911 30.5824 59.203 30.8352 60.2257 30.8352C61.1746 30.8352 62.0013 30.642 62.7058 30.2557C63.4161 29.8693 63.9643 29.3239 64.3507 28.6193C64.7428 27.9091 64.9388 27.0739 64.9388 26.1136L65.6206 26.2415H60.6263V24.0682H67.4871V26.054C67.4871 27.5199 67.1746 28.7926 66.5496 29.8722C65.9303 30.946 65.0723 31.7756 63.9757 32.3608C62.8848 32.946 61.6348 33.2386 60.2257 33.2386C58.6462 33.2386 57.2598 32.875 56.0666 32.1477C54.8791 31.4205 53.953 30.3892 53.2882 29.054C52.6234 27.7131 52.2911 26.1222 52.2911 24.2812C52.2911 22.8892 52.4842 21.6392 52.8706 20.5312C53.257 19.4233 53.7996 18.483 54.4984 17.7102C55.203 16.9318 56.0297 16.3381 56.9786 15.929C57.9331 15.5142 58.9757 15.3068 60.1064 15.3068C61.0496 15.3068 61.9274 15.446 62.7399 15.7244C63.5581 16.0028 64.2854 16.3977 64.9217 16.9091C65.5638 17.4205 66.095 18.0284 66.5155 18.733C66.9359 19.4318 67.22 20.2074 67.3678 21.0597H64.6661ZM76.5655 33H73.77L80.0513 15.5455H83.0939L89.3751 33H86.5797L81.645 18.7159H81.5087L76.5655 33ZM77.0342 26.1648H86.1024V28.3807H77.0342V26.1648ZM96.6957 15.5455H99.8918L105.449 29.1136H105.653L111.21 15.5455H114.406V33H111.9V20.3693H111.738L106.591 32.9744H104.511L99.3633 20.3608H99.2014V33H96.6957V15.5455ZM123.035 33V15.5455H133.978V17.8125H125.668V23.1307H133.407V25.3892H125.668V30.733H134.08V33H123.035ZM153.447 33V15.5455H159.669C161.021 15.5455 162.143 15.7784 163.035 16.2443C163.933 16.7102 164.604 17.3551 165.047 18.179C165.49 18.9972 165.712 19.9432 165.712 21.017C165.712 22.0852 165.487 23.0256 165.038 23.8381C164.595 24.6449 163.925 25.2727 163.027 25.7216C162.135 26.1705 161.013 26.3949 159.66 26.3949H154.947V24.1278H159.422C160.274 24.1278 160.967 24.0057 161.501 23.7614C162.041 23.517 162.436 23.1619 162.686 22.696C162.936 22.2301 163.061 21.6705 163.061 21.017C163.061 20.358 162.933 19.7869 162.677 19.304C162.427 18.821 162.033 18.4517 161.493 18.196C160.959 17.9347 160.257 17.804 159.388 17.804H156.081V33H153.447ZM162.064 25.125L166.376 33H163.376L159.149 25.125H162.064ZM188.878 24.2727C188.878 26.1364 188.537 27.7386 187.855 29.0795C187.173 30.4148 186.239 31.4432 185.051 32.1648C183.869 32.8807 182.526 33.2386 181.02 33.2386C179.509 33.2386 178.159 32.8807 176.972 32.1648C175.79 31.4432 174.858 30.4119 174.176 29.071C173.494 27.7301 173.154 26.1307 173.154 24.2727C173.154 22.4091 173.494 20.8097 174.176 19.4744C174.858 18.1335 175.79 17.1051 176.972 16.3892C178.159 15.6676 179.509 15.3068 181.02 15.3068C182.526 15.3068 183.869 15.6676 185.051 16.3892C186.239 17.1051 187.173 18.1335 187.855 19.4744C188.537 20.8097 188.878 22.4091 188.878 24.2727ZM186.27 24.2727C186.27 22.8523 186.04 21.6562 185.58 20.6847C185.125 19.7074 184.5 18.9688 183.705 18.4688C182.915 17.9631 182.02 17.7102 181.02 17.7102C180.014 17.7102 179.117 17.9631 178.327 18.4688C177.537 18.9688 176.912 19.7074 176.452 20.6847C175.997 21.6562 175.77 22.8523 175.77 24.2727C175.77 25.6932 175.997 26.892 176.452 27.8693C176.912 28.8409 177.537 29.5795 178.327 30.0852C179.117 30.5852 180.014 30.8352 181.02 30.8352C182.02 30.8352 182.915 30.5852 183.705 30.0852C184.5 29.5795 185.125 28.8409 185.58 27.8693C186.04 26.892 186.27 25.6932 186.27 24.2727ZM212.123 24.2727C212.123 26.1364 211.782 27.7386 211.101 29.0795C210.419 30.4148 209.484 31.4432 208.297 32.1648C207.115 32.8807 205.771 33.2386 204.265 33.2386C202.754 33.2386 201.405 32.8807 200.217 32.1648C199.035 31.4432 198.103 30.4119 197.422 29.071C196.74 27.7301 196.399 26.1307 196.399 24.2727C196.399 22.4091 196.74 20.8097 197.422 19.4744C198.103 18.1335 199.035 17.1051 200.217 16.3892C201.405 15.6676 202.754 15.3068 204.265 15.3068C205.771 15.3068 207.115 15.6676 208.297 16.3892C209.484 17.1051 210.419 18.1335 211.101 19.4744C211.782 20.8097 212.123 22.4091 212.123 24.2727ZM209.515 24.2727C209.515 22.8523 209.285 21.6562 208.825 20.6847C208.37 19.7074 207.745 18.9688 206.95 18.4688C206.16 17.9631 205.265 17.7102 204.265 17.7102C203.26 17.7102 202.362 17.9631 201.572 18.4688C200.782 18.9688 200.157 19.7074 199.697 20.6847C199.243 21.6562 199.015 22.8523 199.015 24.2727C199.015 25.6932 199.243 26.892 199.697 27.8693C200.157 28.8409 200.782 29.5795 201.572 30.0852C202.362 30.5852 203.26 30.8352 204.265 30.8352C205.265 30.8352 206.16 30.5852 206.95 30.0852C207.745 29.5795 208.37 28.8409 208.825 27.8693C209.285 26.892 209.515 25.6932 209.515 24.2727ZM220.207 15.5455H223.403L228.96 29.1136H229.164L234.721 15.5455H237.917V33H235.411V20.3693H235.249L230.102 32.9744H228.022L222.874 20.3608H222.712V33H220.207V15.5455Z" fill="black"/>
<path d="M12.5 44.5V0.5L0 13V56.5H231.5L243.5 44.5H12.5Z" fill="black"/>
</svg>
