<svg width="43" height="64" viewBox="0 0 43 64" fill="none" xmlns="http://www.w3.org/2000/svg">
<path d="M1.46338 64C0.663375 64 0.263375 63.6 0.263375 62.8V39.76C0.263375 39.472 0.279375 39.216 0.311375 38.992C0.375375 38.768 0.519375 38.544 0.743375 38.32L6.98338 32.08V30.4L0.599375 24.016C0.375375 23.76 0.231375 23.52 0.167375 23.296C0.135375 23.072 0.119375 22.832 0.119375 22.576V1.216C0.119375 0.415997 0.519375 0.0159969 1.31938 0.0159969H14.9034C15.7034 0.0159969 16.1034 0.415997 16.1034 1.216V24.736H26.8554V1.216C26.8554 0.415997 27.2554 0.0159969 28.0554 0.0159969H41.6394C42.4394 0.0159969 42.8394 0.415997 42.8394 1.216V22.576C42.8394 22.832 42.8234 23.072 42.7914 23.296C42.7594 23.52 42.6154 23.76 42.3594 24.016L35.9754 30.4V32.08L42.2154 38.32C42.4714 38.544 42.6154 38.768 42.6474 38.992C42.6794 39.216 42.6954 39.472 42.6954 39.76V62.8C42.6954 63.6 42.2954 64 41.4954 64H27.8634C27.0634 64 26.6634 63.6 26.6634 62.8V37.504H16.2954V62.8C16.2954 63.6 15.8954 64 15.0954 64H1.46338Z" fill="#F3A93A"/>
</svg>
